<?xml version="1.0" encoding="UTF-8"?>
<svg id="Layer_1" xmlns="http://www.w3.org/2000/svg" version="1.1" viewBox="0 0 198.9 27.2">
  <!-- Generator: Adobe Illustrator 29.5.0, SVG Export Plug-In . SVG Version: 2.1.0 Build 137)  -->
  <g>
    <path d="M40.7,25.9c-1.4,0-2.5-.2-3.5-.7s-1.7-1.2-2.2-2-.8-2-.8-3.2V6c0-1.3.3-2.3.8-3.2s1.3-1.6,2.2-2c1-.5,2.1-.7,3.5-.7s2.5.2,3.5.7,1.7,1.1,2.2,2c.5.9.8,2,.8,3.2v14c0,1.3-.3,2.3-.8,3.2s-1.3,1.6-2.2,2c-1,.5-2.1.7-3.5.7ZM40.7,21.6c.7,0,1.2-.2,1.6-.6s.6-.9.6-1.6V6.5c0-.7-.2-1.2-.6-1.6s-.9-.6-1.6-.6-1.2.2-1.5.6c-.4.4-.6.9-.6,1.6v12.9c0,.7.2,1.2.6,1.6.4.4.9.6,1.5.6ZM46.7,27.2l-7.5-7.2,2.8-3.2,7.5,7.1-2.8,3.2h0Z"/>
    <path d="M49.3,25.7L55.4.3h3l6.1,25.4h-4.3l-3.3-16.6-3.3,16.6s-4.3,0-4.3,0ZM53.4,21.7v-4.1h6.9v4.1h-6.9Z"/>
    <path d="M66.3,25.7V.3h4.3v25.4s-4.3,0-4.3,0ZM68.1,25.7v-4.2h9.2v4.2h-9.2Z"/>
    <path d="M78.6,25.7L84.7.3h3l6.1,25.4h-4.3l-3.3-16.6-3.3,16.6h-4.3,0ZM82.8,21.7v-4.1h6.9v4.1h-6.9Z"/>
    <path d="M104,14.1L108.4.3h4.1v25.4h-3.9V7.9l.3,1.1-3.7,12.1h-2.2l-3.7-11.8.3-1.5v17.7h-3.9V.3h4.2l4.2,13.8h-.1Z"/>
    <path d="M115.7,25.7V.3h2.5v25.4s-2.5,0-2.5,0ZM117.1,25.7v-2.3h6.2c.6,0,1.1-.2,1.4-.5.3-.4.5-.9.5-1.5V4.7c0-.7-.2-1.2-.5-1.5-.3-.4-.8-.5-1.4-.5h-6.2V.3h6.1c1.4,0,2.6.4,3.3,1.2.8.8,1.2,1.9,1.2,3.4v16.3c0,1-.2,1.8-.5,2.5-.4.7-.9,1.2-1.5,1.6-.7.4-1.5.5-2.5.5h-6.1Z"/>
    <path d="M133.7.3v25.4h-2.5V.3h2.5Z"/>
    <path d="M143.7,12h6.2v7.4c0,1.4-.2,2.6-.7,3.5-.5,1-1.2,1.7-2.1,2.2-.9.5-2,.8-3.3.8s-2.4-.2-3.4-.7c-.9-.5-1.6-1.2-2.1-2.1s-.7-2-.7-3.3V6.5c0-1.4.2-2.6.7-3.5s1.2-1.7,2.1-2.2C141.3.3,142.4,0,143.7,0s2.3.2,3.2.7c.9.5,1.6,1.2,2,2.2.4,1,.7,2.1.7,3.4v1.2h-2.7v-1.2c0-1.2-.3-2.2-.8-2.9-.6-.7-1.4-1-2.4-1s-2,.4-2.6,1.1-.9,1.7-.9,3v13.3c0,1.2.3,2.1,1,2.7.6.7,1.6,1,2.7,1s2-.4,2.6-1.1.9-1.7.9-3v-5.1h-3.7s0-2.3,0-2.3Z"/>
    <path d="M155.9.3v25.4h-2.5V.3h2.5Z"/>
    <path d="M159.4,2.6V.3h12.3v2.3h-12.3ZM164.3,25.7V2.3h2.5v23.3h-2.5Z"/>
    <path d="M171.4,25.7L177.2.3h3l5.9,25.4h-2.8l-4.6-22.6-4.6,22.6h-2.8.1ZM174.6,19.5v-2.3h8.6v2.3h-8.6Z"/>
    <path d="M188.4,25.7V.3h2.5v25.4s-2.5,0-2.5,0ZM190.2,25.7v-2.3h8.8v2.3h-8.8Z"/>
  </g>
  <path d="M26.2,18.8c.7-1.6,1-3.4,1-5.2h-13.6v13.6c1.8,0,3.6-.4,5.2-1v-3.7l2.4,2.4,2.3,2.3h3.7v-3.7l-4.7-4.7h3.7Z"/>
  <path d="M26.2,18.8c.7-1.6,1-3.4,1-5.2h-13.6v13.6c1.8,0,3.6-.4,5.2-1v-3.7l2.4,2.4,2.3,2.3h3.7v-3.7l-4.7-4.7h3.7Z"/>
  <path d="M12.7,18.8c-2.5-.4-4.4-2.6-4.4-5.2s2.4-5.3,5.3-5.3,4.8,1.9,5.2,4.4h8.4c-.5-7.1-6.4-12.7-13.6-12.7S0,6.1,0,13.6s5.6,13.1,12.7,13.6v-8.4Z"/>
</svg>