<?xml version="1.0" encoding="UTF-8"?>
<svg id="Layer_1" data-name="Layer 1" xmlns="http://www.w3.org/2000/svg" viewBox="0 0 198.98 27.19">
  <defs>
    <style>
      .cls-1 {
        fill: #00483b;
      }

      .cls-2 {
        fill: #40b549;
      }

      .cls-3 {
        fill: #363639;
      }
    </style>
  </defs>
  <g>
    <path d="M40.69,25.92c-1.36,0-2.53-.23-3.5-.71-.97-.47-1.72-1.15-2.23-2.04-.51-.89-.77-1.96-.77-3.22V5.97c0-1.27.26-2.35.77-3.24.51-.89,1.25-1.57,2.23-2.03.97-.47,2.14-.7,3.5-.7s2.53.23,3.5.7c.97.47,1.71,1.14,2.23,2.03s.77,1.97.77,3.24v13.97c0,1.26-.26,2.33-.77,3.22-.51.89-1.25,1.57-2.23,2.04-.97.47-2.14.71-3.5.71ZM40.69,21.59c.68,0,1.2-.19,1.56-.58.37-.39.55-.92.55-1.63V6.5c0-.69-.18-1.22-.55-1.61-.37-.38-.89-.57-1.56-.57s-1.18.19-1.54.57c-.37.39-.55.92-.55,1.61v12.89c0,.7.18,1.24.55,1.63.37.39.88.58,1.54.58ZM46.75,27.19l-7.54-7.16,2.81-3.19,7.53,7.14-2.8,3.21Z"/>
    <path d="M49.32,25.66L55.38.26h3.04l6.06,25.4h-4.3l-3.28-16.64-3.28,16.64h-4.29ZM53.45,21.71v-4.05h6.91v4.05h-6.91Z"/>
    <path d="M66.37,25.66V.26h4.33v25.4h-4.33ZM68.15,25.66v-4.16h9.15v4.16h-9.15Z"/>
    <path d="M78.66,25.66L84.72.26h3.04l6.06,25.4h-4.3l-3.28-16.64-3.28,16.64h-4.29ZM82.79,21.71v-4.05h6.91v4.05h-6.91Z"/>
    <path d="M104.08,14.06L108.39.26h4.05v25.4h-3.86V7.93l.26,1.12-3.68,12.12h-2.17l-3.68-11.77.35-1.47v17.73h-3.95V.26h4.16l4.21,13.8Z"/>
    <path class="cls-3" d="M115.74,25.66V.26h2.51v25.4h-2.51ZM117.11,25.66v-2.34h6.18c.61,0,1.07-.18,1.4-.54.33-.36.49-.88.49-1.54V4.68c0-.66-.16-1.18-.49-1.54-.32-.36-.79-.54-1.4-.54h-6.18V.26h6.08c1.44,0,2.56.4,3.34,1.19s1.17,1.92,1.17,3.37v16.28c0,.97-.18,1.79-.53,2.47s-.87,1.2-1.54,1.55c-.67.36-1.49.53-2.45.53h-6.06Z"/>
    <path class="cls-3" d="M133.72.26v25.4h-2.52V.26h2.52Z"/>
    <path class="cls-3" d="M143.69,11.98h6.18v7.4c0,1.39-.24,2.56-.72,3.54-.48.97-1.17,1.71-2.08,2.23s-2.01.77-3.3.77-2.44-.24-3.36-.72c-.92-.48-1.63-1.18-2.11-2.1-.48-.91-.72-2.02-.72-3.33V6.51c0-1.39.24-2.56.72-3.53.48-.97,1.17-1.71,2.08-2.22s2.01-.77,3.3-.77,2.35.25,3.24.74,1.57,1.21,2.04,2.16c.47.94.71,2.09.71,3.43v1.22h-2.72v-1.22c0-1.25-.28-2.21-.85-2.88-.57-.68-1.37-1.01-2.42-1.01-1.13,0-2.01.35-2.64,1.06s-.94,1.72-.94,3.02v13.26c0,1.18.32,2.09.97,2.74s1.55.98,2.72.98,2.02-.35,2.65-1.06.94-1.7.94-2.98v-5.14h-3.67v-2.34Z"/>
    <path class="cls-3" d="M155.89.26v25.4h-2.52V.26h2.52Z"/>
    <path class="cls-3" d="M159.41,2.6V.26h12.33v2.34h-12.33ZM164.31,25.66V2.34h2.52v23.31h-2.52Z"/>
    <path class="cls-3" d="M171.39,25.66L177.26.26h3.04l5.87,25.4h-2.79l-4.59-22.58-4.59,22.58h-2.79ZM174.65,19.49v-2.34h8.63v2.34h-8.63Z"/>
    <path class="cls-3" d="M188.43,25.66V.26h2.51v25.4h-2.51ZM190.21,25.66v-2.34h8.77v2.34h-8.77Z"/>
  </g>
  <g>
    <path class="cls-2" d="M26.16,18.8c.67-1.6,1.03-3.36,1.03-5.2h-13.6v13.6c1.84,0,3.6-.37,5.2-1.03v-3.68l2.4,2.4,2.32,2.32h3.68v-3.68l-4.71-4.71h3.68Z"/>
    <path class="cls-1" d="M8.32,13.6c0-2.91,2.36-5.28,5.28-5.28s5.28,2.36,5.28,5.28h8.32C27.19,6.09,21.1,0,13.6,0S0,6.09,0,13.6s6.09,13.6,13.6,13.6v-8.32c-2.91,0-5.28-2.36-5.28-5.28Z"/>
  </g>
</svg>